# xmcd
#
# Track frame offsets:
#	150
#	16990
#	36725
#	53140
#	76435
#	88022
#	102567
#	119492
#	136595
#	152687
#	166795
#	183030
#	203000
#	216785
#	245750
#
# Disc length: 4200 seconds
#
# Revision: 1
# Processed by: cddbd v1.5.2PL0 Copyright (c) Steve Scherf et al.
# Submitted via: audiograbber 1.83.01
#
DISCID=c710660f
DTITLE=Various Artist - Dive Into Sony Music Fall Sampler 2001
DYEAR=1900
DGENRE=Country
TTITLE0=Mary Chapin Carpenter - This Is Me Leaving You
TTITLE1=Billy Gilman - Elisabeth
TTITLE2=Travis Tritt - Love Of A Woman
TTITLE3=Montgomery Gentry - Cold One Comin' On
TTITLE4=Patty Loveless - The Boys Are Back In Town
TTITLE5=Jeffrey Steele - Somethin' In The Water
TTITLE6=Collin Raye- Ain't Nobody Gonna Take That From Me
TTITLE7=Joe Diffie - In Another World
TTITLE8=Tammy Cochran - I Cry
TTITLE9=Charlie Robison - Right Man For The Job
TTITLE10=Wild Horses - I Will Survive
TTITLE11=Cledus T Judd - Plowboy
TTITLE12=Derailers - More Of Your Love
TTITLE13=BR549 - Too Lazy To Work, Too Nervous To Steal
TTITLE14=Data Track
EXTD=
EXTT0=
EXTT1=
EXTT2=
EXTT3=
EXTT4=
EXTT5=
EXTT6=
EXTT7=
EXTT8=
EXTT9=
EXTT10=
EXTT11=
EXTT12=
EXTT13=
EXTT14=
PLAYORDER=
